<svg width="247" height="78" viewBox="0 0 247 78" fill="none" xmlns="http://www.w3.org/2000/svg">
<g clip-path="url(#clip0)">
<path d="M99.1447 51.2069L110.1 77.834H105.041L102.493 71.519H90.2818L87.7709 77.834H82.9442L93.7414 51.2069H99.1447ZM91.993 67.1478H100.744L96.3733 56.2291L91.993 67.1478Z" fill="#8168F0"/>
<path d="M132.801 55.5874H118.618V77.834H113.866V51.2069H137.562V77.834H132.81V55.5874H132.801Z" fill="#8168F0"/>
<path d="M164.097 55.5875H155.124V77.8343H150.371V55.5875H141.545V51.2163H164.097V55.5875Z" fill="#8168F0"/>
<path d="M185.097 66.3108H172.849V73.4628H186.919V77.834H168.096V51.2069H186.5V55.5781H172.849V61.9303H185.097V66.3108Z" fill="#8168F0"/>
<path d="M78.9271 66.3108H66.6791V73.4628H80.7498V77.834H61.9269V51.2069H80.3314V55.5781H66.6791V61.9303H78.9271V66.3108Z" fill="#8168F0"/>
<path d="M197.332 77.834H192.581V51.2069H197.332V62.386H201.323L209.879 51.2069H215.662L205.507 63.8741L217.299 77.834H211.217L201.554 66.3108H197.332V77.834Z" fill="#8168F0"/>
<path d="M233.971 51.2069L244.926 77.834H239.868L237.319 71.519H225.109L222.598 77.834H217.772L228.569 51.2069H233.971ZM226.82 67.1478H235.572L231.2 56.2291L226.82 67.1478Z" fill="#8168F0"/>
<path d="M72.6719 30.9533C74.3938 30.963 76.0901 30.5361 77.6037 29.7119L78.8698 29.0237L82.5664 31.7575C80.1274 34.3789 76.5326 35.8195 72.4146 35.8195C68.4778 35.8195 64.8796 34.417 62.3059 31.8911C59.732 29.3652 58.3139 25.8547 58.3139 22.0406C58.3139 18.2267 59.7528 14.7681 62.3214 12.3325C64.89 9.89675 68.4865 8.5549 72.4508 8.5549C76.1059 8.5549 79.3017 9.66964 81.6941 11.7794L81.9653 12.01L77.8679 15.0404C76.3539 13.9537 74.533 13.3821 72.6719 13.409C67.5226 13.409 63.7845 17.0982 63.7845 22.1811C63.7845 27.2641 67.5226 30.9533 72.6719 30.9533Z" fill="#21A038"/>
<path fill-rule="evenodd" clip-rule="evenodd" d="M100.072 19.2528H93.1208V13.3203H104.216L110.196 8.89791H87.4082V35.4655H99.3273C106.017 35.4655 109.854 32.4232 109.854 27.1199C109.861 22.0475 106.384 19.2528 100.072 19.2528ZM99.0768 31.0413H93.1208V23.677H99.0768C102.704 23.677 104.39 24.9095 104.39 27.3593C104.39 29.8626 102.596 31.0413 99.0768 31.0413Z" fill="#21A038"/>
<path d="M135.195 8.89791L129.215 13.3203H120.892V19.8163H133.092V24.2405H120.892V31.0413H135.195V35.4655H115.179V8.89791H135.195Z" fill="#21A038"/>
<path fill-rule="evenodd" clip-rule="evenodd" d="M140.514 8.89791H151.412C158.365 8.89791 162.681 12.5402 162.681 18.4051C162.681 24.2699 158.361 27.9399 151.408 27.9399H146.226V35.4655H140.514V8.89791ZM146.226 23.5157H151.289C154.949 23.5157 156.963 21.7059 156.963 18.419C156.963 15.132 154.949 13.3203 151.289 13.3203H146.226V23.5157Z" fill="#21A038"/>
<path d="M40.2429 8.79006C41.2832 10.1444 42.173 11.6242 42.8843 13.2016L22.8002 28.1077L14.4086 22.8107V16.4384L22.8002 21.7352L40.2429 8.79006Z" fill="#21A038"/>
<path d="M5.84836 22.361C5.84836 22.0752 5.85529 21.7911 5.86913 21.5087L0.783616 21.2526C0.766307 21.6203 0.75592 21.9899 0.75592 22.361C0.75592 28.4895 3.22252 34.0392 7.21234 38.0567L10.8179 34.4261C7.75067 31.334 5.84836 27.0672 5.84836 22.361Z" fill="url(#paint0_linear)"/>
<path d="M22.7997 5.29186C23.0836 5.29186 23.3657 5.30232 23.6461 5.31626L23.9006 0.193599C23.5353 0.176169 23.1683 0.16571 22.7997 0.16571C16.7136 0.16571 11.2023 2.64948 7.2125 6.66708L10.8181 10.2977C13.8888 7.20567 18.1261 5.29186 22.7997 5.29186Z" fill="url(#paint1_linear)"/>
<path d="M22.7991 39.4302C22.5152 39.4302 22.2331 39.4233 21.9526 39.4093L21.6981 44.5303C22.0633 44.5476 22.4303 44.5581 22.7991 44.5581C28.885 44.5581 34.3964 42.0743 38.3862 38.0567L34.7806 34.426C31.7099 37.5147 27.4725 39.4302 22.7991 39.4302Z" fill="url(#paint2_linear)"/>
<path d="M32.3558 8.27063L36.6434 5.08968C32.8595 2.0098 28.0441 0.16571 22.7994 0.16571V5.29361C26.3426 5.29186 29.6331 6.39344 32.3558 8.27063Z" fill="url(#paint3_linear)"/>
<path d="M44.8418 22.3611C44.8418 21.0032 44.7206 19.6751 44.4887 18.3836L39.7442 21.9043C39.7476 22.0561 39.7511 22.2077 39.7511 22.3593C39.7511 27.3704 37.5943 31.8847 34.167 35.0099L37.5891 38.8185C42.0429 34.7589 44.8418 28.8885 44.8418 22.3611Z" fill="#21A038"/>
<path d="M22.7994 39.4302C17.8229 39.4302 13.3397 37.2584 10.2361 33.8073L6.45402 37.2532C10.4871 41.7396 16.317 44.558 22.7994 44.558V39.4302Z" fill="url(#paint4_linear)"/>
<path d="M11.4324 9.71035L8.01032 5.9019C3.55486 9.96308 0.75592 15.8335 0.75592 22.361H5.84836C5.85009 17.3482 8.00512 12.8355 11.4324 9.71035Z" fill="url(#paint5_linear)"/>
</g>
<defs>
<linearGradient id="paint0_linear" x1="8.24375" y1="37.4139" x2="2.61058" y2="21.2434" gradientUnits="userSpaceOnUse">
<stop offset="0.1444" stop-color="#F2E913"/>
<stop offset="0.3037" stop-color="#E7E518"/>
<stop offset="0.5823" stop-color="#CADB26"/>
<stop offset="0.891" stop-color="#A3CD39"/>
</linearGradient>
<linearGradient id="paint1_linear" x1="8.6679" y1="7.57356" x2="23.0231" y2="2.14092" gradientUnits="userSpaceOnUse">
<stop offset="0.0592" stop-color="#0FA8E0"/>
<stop offset="0.5385" stop-color="#0099F9"/>
<stop offset="0.9234" stop-color="#0291EB"/>
</linearGradient>
<linearGradient id="paint2_linear" x1="21.3621" y1="41.4633" x2="37.5779" y2="37.8237" gradientUnits="userSpaceOnUse">
<stop offset="0.1226" stop-color="#A3CD39"/>
<stop offset="0.2846" stop-color="#86C339"/>
<stop offset="0.8693" stop-color="#21A038"/>
</linearGradient>
<linearGradient id="paint3_linear" x1="21.7339" y1="1.88324" x2="35.6054" y2="6.13361" gradientUnits="userSpaceOnUse">
<stop offset="0.0566" stop-color="#0291EB"/>
<stop offset="0.79" stop-color="#0C8ACB"/>
</linearGradient>
<linearGradient id="paint4_linear" x1="7.73132" y1="36.6282" x2="22.8379" y2="42.2335" gradientUnits="userSpaceOnUse">
<stop offset="0.1324" stop-color="#F2E913"/>
<stop offset="0.2977" stop-color="#EBE716"/>
<stop offset="0.5306" stop-color="#D9E01F"/>
<stop offset="0.8023" stop-color="#BBD62D"/>
<stop offset="0.9829" stop-color="#A3CD39"/>
</linearGradient>
<linearGradient id="paint5_linear" x1="2.65383" y1="22.9821" x2="8.78102" y2="7.15321" gradientUnits="userSpaceOnUse">
<stop offset="0.0698" stop-color="#A3CD39"/>
<stop offset="0.2599" stop-color="#81C55F"/>
<stop offset="0.9216" stop-color="#0FA8E0"/>
</linearGradient>
<clipPath id="clip0">
<rect width="245.488" height="77.6686" fill="white" transform="translate(0.75592 0.16571)"/>
</clipPath>
</defs>
</svg>
