<svg width="25" height="24" viewBox="0 0 25 24" fill="none" xmlns="http://www.w3.org/2000/svg">
<path d="M12.8073 15C14.4642 15 15.8073 13.6569 15.8073 12C15.8073 10.3431 14.4642 9 12.8073 9C11.1505 9 9.80731 10.3431 9.80731 12C9.80731 13.6569 11.1505 15 12.8073 15Z" fill="#9199A3"/>
<path d="M20.8073 4H17.6373L16.3973 2.65C16.211 2.44539 15.984 2.28191 15.7309 2.16999C15.4777 2.05807 15.2041 2.00017 14.9273 2H10.6873C10.1273 2 9.58731 2.24 9.20731 2.65L7.97731 4H4.80731C3.70731 4 2.80731 4.9 2.80731 6V18C2.80731 19.1 3.70731 20 4.80731 20H20.8073C21.9073 20 22.8073 19.1 22.8073 18V6C22.8073 4.9 21.9073 4 20.8073 4ZM12.8073 17C10.0473 17 7.80731 14.76 7.80731 12C7.80731 9.24 10.0473 7 12.8073 7C15.5673 7 17.8073 9.24 17.8073 12C17.8073 14.76 15.5673 17 12.8073 17Z" fill="#9199A3"/>
</svg>
