<svg width="16" height="17" viewBox="0 0 16 17" fill="none" xmlns="http://www.w3.org/2000/svg">
<path d="M14.4721 0.37085H0.943098C0.71884 0.37085 0.503768 0.459935 0.345194 0.618509C0.18662 0.777083 0.0975342 0.992156 0.0975342 1.21641V3.40642C0.0975342 3.84865 0.277639 4.28327 0.590498 4.59613L5.17092 9.17655V15.591C5.17108 15.7351 5.20801 15.8767 5.27822 16.0025C5.34842 16.1283 5.44957 16.2341 5.57209 16.3099C5.69461 16.3856 5.83444 16.4289 5.97835 16.4355C6.12226 16.4422 6.26548 16.412 6.39445 16.3478L9.7767 14.6566C10.0633 14.5129 10.2443 14.2203 10.2443 13.8999V9.17655L14.8247 4.59613C15.1376 4.28327 15.3177 3.84865 15.3177 3.40642V1.21641C15.3177 0.992156 15.2286 0.777083 15.07 0.618509C14.9114 0.459935 14.6964 0.37085 14.4721 0.37085ZM8.80092 8.22867C8.72225 8.30706 8.65986 8.40024 8.61734 8.50283C8.57482 8.60543 8.55301 8.71543 8.55317 8.82649V13.3773L6.86204 14.2229V8.82649C6.8622 8.71543 6.8404 8.60543 6.79788 8.50283C6.75536 8.40024 6.69297 8.30706 6.61429 8.22867L1.78866 3.40642V2.06198H13.6274L13.6291 3.4005L8.80092 8.22867Z" fill="#363E4A"/>
</svg>
