<svg width="19" height="24" viewBox="0 0 19 24" fill="none" xmlns="http://www.w3.org/2000/svg">
<path d="M9.47666 7.43066C7.98747 7.43066 6.76904 8.64909 6.76904 10.1383C6.76904 11.6275 7.98747 12.8459 9.47666 12.8459C10.9658 12.8459 12.1843 11.6275 12.1843 10.1383C12.1843 8.64909 10.9658 7.43066 9.47666 7.43066ZM9.47666 0.661621C13.9036 0.661621 18.9533 3.99199 18.9533 10.3413C18.9533 14.3757 16.0697 18.6267 10.3025 23.0536C9.81511 23.4327 9.1382 23.4327 8.65083 23.0536C2.88361 18.6131 0 14.3757 0 10.3413C0 3.99199 5.0497 0.661621 9.47666 0.661621Z" fill="#8168F0"/>
</svg>
