<svg width="25" height="24" viewBox="0 0 25 24" fill="none" xmlns="http://www.w3.org/2000/svg">
<path d="M12.8073 16C15.0133 16 16.8073 14.206 16.8073 12V6C16.8073 3.783 15.0223 1.979 12.8283 1.979C12.7579 1.97943 12.6878 1.98781 12.6193 2.004C11.5926 2.05378 10.6242 2.49636 9.91469 3.24016C9.20514 3.98395 8.80867 4.97205 8.80731 6V12C8.80731 14.206 10.6013 16 12.8073 16Z" fill="#9199A3"/>
<path d="M11.8073 19.931V22H13.8073V19.931C17.7463 19.436 20.8073 16.073 20.8073 12H18.8073C18.8073 15.309 16.1163 18 12.8073 18C9.49831 18 6.80731 15.309 6.80731 12H4.80731C4.80731 16.072 7.86831 19.436 11.8073 19.931Z" fill="#9199A3"/>
</svg>
