<svg width="35" height="35" viewBox="0 0 35 35" fill="none" xmlns="http://www.w3.org/2000/svg">
<rect width="35" height="35" rx="17.5" fill="#F1F3F6"/>
<path d="M25.7225 23.7664L22.4304 20.4196C22.2818 20.2686 22.0804 20.1847 21.8691 20.1847H21.3309C22.2422 18.9997 22.7837 17.5092 22.7837 15.8879C22.7837 12.0308 19.7096 8.90555 15.9157 8.90555C12.1218 8.90555 9.04773 12.0308 9.04773 15.8879C9.04773 19.7449 12.1218 22.8702 15.9157 22.8702C17.5106 22.8702 18.9766 22.3196 20.1422 21.3931V21.9403C20.1422 22.1551 20.2247 22.3599 20.3733 22.511L23.6654 25.8578C23.9757 26.1733 24.4776 26.1733 24.7847 25.8578L25.7191 24.9078C26.0295 24.5922 26.0295 24.082 25.7225 23.7664ZM15.9157 20.1847C13.5813 20.1847 11.6893 18.2645 11.6893 15.8879C11.6893 13.5145 13.578 11.591 15.9157 11.591C18.2502 11.591 20.1422 13.5112 20.1422 15.8879C20.1422 18.2612 18.2535 20.1847 15.9157 20.1847Z" fill="#363E4A"/>
</svg>
