<svg width="17" height="18" viewBox="0 0 17 18" fill="none" xmlns="http://www.w3.org/2000/svg">
<path d="M16.6747 14.8609L13.3827 11.5141C13.2341 11.363 13.0327 11.2791 12.8214 11.2791H12.2832C13.1945 10.0941 13.736 8.60368 13.736 6.9823C13.736 3.12525 10.6619 0 6.868 0C3.07409 0 0 3.12525 0 6.9823C0 10.8394 3.07409 13.9646 6.868 13.9646C8.46283 13.9646 9.92889 13.4141 11.0945 12.4876V13.0348C11.0945 13.2496 11.177 13.4544 11.3256 13.6054L14.6176 16.9522C14.928 17.2678 15.4299 17.2678 15.737 16.9522L16.6714 16.0022C16.9818 15.6867 16.9818 15.1764 16.6747 14.8609ZM6.868 11.2791C4.53354 11.2791 2.64154 9.35897 2.64154 6.9823C2.64154 4.60899 4.53024 2.6855 6.868 2.6855C9.20246 2.6855 11.0945 4.60564 11.0945 6.9823C11.0945 9.35562 9.20577 11.2791 6.868 11.2791Z" fill="#8168F0"/>
</svg>
