<svg width="10" height="10" viewBox="0 0 10 10" fill="none" xmlns="http://www.w3.org/2000/svg">
<path d="M4.84261 0.750505C4.98788 0.448122 5.41845 0.448122 5.56372 0.750505L6.61445 2.93766C6.67276 3.05903 6.78823 3.14292 6.92168 3.16087L9.32648 3.48431C9.65895 3.52903 9.79201 3.93852 9.54931 4.17012L7.7939 5.84529C7.69649 5.93826 7.65238 6.074 7.67655 6.20647L8.11206 8.59352C8.17228 8.92353 7.82394 9.17661 7.52868 9.01737L5.39304 7.86553C5.27453 7.80161 5.1318 7.80161 5.01328 7.86553L2.87765 9.01737C2.58239 9.17661 2.23405 8.92353 2.29426 8.59352L2.72978 6.20647C2.75395 6.074 2.70984 5.93826 2.61243 5.84529L0.857017 4.17012C0.614325 3.93852 0.747377 3.52903 1.07985 3.48431L3.48465 3.16087C3.6181 3.14292 3.73357 3.05903 3.79188 2.93766L4.84261 0.750505Z" fill="#FFBC59"/>
</svg>
