<svg width="17" height="17" viewBox="0 0 17 17" fill="none" xmlns="http://www.w3.org/2000/svg">
<path fill-rule="evenodd" clip-rule="evenodd" d="M2.65256 3.36011C2.12774 3.55065 1.75195 4.05426 1.75195 4.64417V11.4718C1.75195 11.9811 2.03598 12.4215 2.45041 12.6557C2.53439 13.8976 3.56126 14.8855 4.82437 14.8855C6.02534 14.8855 7.01192 13.9918 7.1792 12.8373H9.29711C9.46439 13.9918 10.451 14.8855 11.6519 14.8855C12.3465 14.8855 12.9694 14.5866 13.4036 14.1111L12.4408 13.1483C12.2527 13.3752 11.9689 13.52 11.6519 13.52C11.0873 13.52 10.6278 13.0605 10.6278 12.4959C10.6278 12.1789 10.7726 11.8951 10.9995 11.7071L2.65256 3.36011ZM14.5065 12.7558C15.0313 12.5653 15.4071 12.0617 15.4071 11.4718V9.42348C15.4073 9.29956 15.3735 9.17796 15.3095 9.07186L13.4599 5.98989C13.3382 5.78815 13.1666 5.62116 12.9617 5.50504C12.7567 5.38892 12.5252 5.32757 12.2896 5.32693H10.6278V3.96141C10.6278 3.78033 10.5559 3.60667 10.4278 3.47863C10.2998 3.35059 10.1261 3.27865 9.94505 3.27865H5.02931L14.5065 12.7558ZM12.2896 6.69244H10.6278V8.74072H13.5186L12.2896 6.69244ZM3.80023 12.4959C3.80023 13.0605 4.25972 13.52 4.82437 13.52C5.38901 13.52 5.8485 13.0605 5.8485 12.4959C5.8485 11.9312 5.38901 11.4718 4.82437 11.4718C4.25972 11.4718 3.80023 11.9312 3.80023 12.4959Z" fill="#363E4A"/>
</svg>
