<svg width="20" height="20" viewBox="0 0 20 20" fill="none" xmlns="http://www.w3.org/2000/svg">
<path d="M9.77407 10.9957C12.8093 10.9957 15.2719 8.53309 15.2719 5.49783C15.2719 2.46257 12.8093 0 9.77407 0C6.73881 0 4.27624 2.46257 4.27624 5.49783C4.27624 8.53309 6.73881 10.9957 9.77407 10.9957ZM14.661 12.2174H12.5573C11.7098 12.6068 10.7667 12.8283 9.77407 12.8283C8.78141 12.8283 7.8422 12.6068 6.9908 12.2174H4.88711C2.18783 12.2174 0.000152588 14.4051 0.000152588 17.1044V17.7152C0.000152588 18.727 0.821009 19.5478 1.83276 19.5478H17.7154C18.7271 19.5478 19.548 18.727 19.548 17.7152V17.1044C19.548 14.4051 17.3603 12.2174 14.661 12.2174Z" fill="#363E4A"/>
</svg>
